<svg xmlns="http://www.w3.org/2000/svg" viewBox="0 0 500 500"><g id="freepik--background-complete--inject-4"><rect x="43.6" y="375.38" width="46.04" height="101.34" style="fill:#dbdbdb"></rect><rect x="77.86" y="375.38" width="11.78" height="101.34" style="fill:#c7c7c7"></rect><rect x="109.74" y="330.63" width="46.04" height="146.09" style="fill:#dbdbdb"></rect><rect x="144" y="330.63" width="11.78" height="146.09" style="fill:#c7c7c7"></rect><rect x="175.89" y="285.88" width="46.04" height="190.85" style="fill:#dbdbdb"></rect><rect x="210.14" y="285.88" width="11.78" height="190.85" style="fill:#c7c7c7"></rect><rect x="242.03" y="241.12" width="46.04" height="235.6" style="fill:#dbdbdb"></rect><rect x="276.28" y="241.12" width="11.78" height="235.6" style="fill:#c7c7c7"></rect><path d="M304.53,448a4.81,4.81,0,1,1-4.81-4.8A4.81,4.81,0,0,1,304.53,448Z" style="fill:#ebebeb;opacity:0.6000000000000001"></path><path d="M310.37,438.87a2.34,2.34,0,1,1-2.34-2.34A2.34,2.34,0,0,1,310.37,438.87Z" style="fill:#ebebeb;opacity:0.6000000000000001"></path><path d="M413.12,445.72a2.35,2.35,0,1,1-2.35-2.34A2.34,2.34,0,0,1,413.12,445.72Z" style="fill:#ebebeb;opacity:0.6000000000000001"></path><circle cx="453.49" cy="462.08" r="2.34" style="fill:#ebebeb;opacity:0.6000000000000001"></circle><path d="M456.4,473.93a2.79,2.79,0,0,1-2.79,2.79h-174a2.79,2.79,0,1,1,0-5.58,3,3,0,0,1,.67.08,5.5,5.5,0,0,1,9.43-3.85l.05,0c0-.34-.05-.68-.05-1a10.4,10.4,0,0,1,10.39-10.4,10.18,10.18,0,0,1,4.57,1.07A7.42,7.42,0,0,1,319,454.74a10.36,10.36,0,0,1,8.79-4.85,10,10,0,0,1,2,.19,13.9,13.9,0,0,1-.21-2.43A14.05,14.05,0,0,1,352.77,437a2.79,2.79,0,0,1,2.48-1.51,2.91,2.91,0,0,1,1.07.21l2.61-248.15h15.33l2.62,248.15a2.87,2.87,0,0,1,1.07-.21,2.78,2.78,0,0,1,2.47,1.51,14.06,14.06,0,0,1,23,13.08,10,10,0,0,1,2-.19,10.37,10.37,0,0,1,8.79,4.85A7.41,7.41,0,0,1,428.54,457a10.18,10.18,0,0,1,4.57-1.07,10.4,10.4,0,0,1,10.4,10.4,8.72,8.72,0,0,1-.06,1l.06,0a5.5,5.5,0,0,1,9.43,3.85,2.93,2.93,0,0,1,.67-.08A2.79,2.79,0,0,1,456.4,473.93Z" style="fill:#ebebeb;opacity:0.6000000000000001"></path><path d="M338.24,119.63c-.6,0-23,10.36-24.37,35.86-1.22,23.46,15,45.72,17.09,44.25,2.56-1.81-1.8-16.42,3.18-33.13,1.77-5.92,9.5-11.18,9.5-11.18Z" style="fill:#ebebeb"></path><path d="M343.64,155.42A35.33,35.33,0,0,0,337.5,161c-3.34-7.45-9.57-21.36-13.59-30.38,6.57-7.6,14-11,14.33-11Z" style="opacity:0.1"></path><path d="M395.35,119.67c.61,0,23,10.39,24.32,35.9,1.19,23.45-15.06,45.7-17.15,44.22-2.55-1.81,1.82-16.41-3.13-33.13-1.76-5.93-9.48-11.2-9.48-11.2Z" style="fill:#ebebeb"></path><path d="M409.75,130.74c-4.06,9.08-10.3,23-13.6,30.38a35.46,35.46,0,0,0-6.24-5.66l5.44-35.79C395.7,119.67,403.17,123.07,409.75,130.74Z" style="opacity:0.1"></path><path d="M383.77,178.31l-33.86,0s-16-28.53-14.07-62.53c1-17,5.39-34.07,10.73-48.21C353.92,48,363,34.17,366.94,34.17s13,13.87,20.34,33.41c5.3,14.15,9.71,31.25,10.64,48.22C399.76,149.81,383.77,178.31,383.77,178.31Z" style="fill:#dbdbdb"></path><path d="M387.15,111.4a19.53,19.53,0,1,1-19.51-19.54A19.53,19.53,0,0,1,387.15,111.4Z" style="fill:#c7c7c7"></path><path d="M386.46,109.41a19.53,19.53,0,1,1-19.52-19.54A19.52,19.52,0,0,1,386.46,109.41Z" style="fill:#ebebeb"></path><path d="M380.47,109.4a13.54,13.54,0,1,1-13.54-13.54A13.54,13.54,0,0,1,380.47,109.4Z" style="fill:#fff"></path><path d="M380.48,109.4a13.51,13.51,0,0,1-.92,4.9L371.84,122a13.47,13.47,0,0,1-8.53.42L380,105.77A13.6,13.6,0,0,1,380.48,109.4Z" style="fill:#ebebeb;opacity:0.4"></path><path d="M368.92,96l-15.38,15.39a13.13,13.13,0,0,1-.15-2,13.54,13.54,0,0,1,13.54-13.54A14.45,14.45,0,0,1,368.92,96Z" style="fill:#ebebeb;opacity:0.4"></path><path d="M378.78,102.84l-18.4,18.4a11.06,11.06,0,0,1-1-.63l18.8-18.81A12.05,12.05,0,0,1,378.78,102.84Z" style="fill:#ebebeb;opacity:0.4"></path><path d="M387.28,67.58l-40.71,0C353.92,48,363,34.17,366.94,34.17S379.94,48,387.28,67.58Z" style="fill:#ebebeb"></path><path d="M353.58,63.35a1.14,1.14,0,1,1-1.14-1.14A1.14,1.14,0,0,1,353.58,63.35Z" style="fill:#fff"></path><path d="M360.82,63.36a1.14,1.14,0,1,1-1.14-1.14A1.14,1.14,0,0,1,360.82,63.36Z" style="fill:#fff"></path><path d="M368.06,63.36a1.14,1.14,0,0,1-1.14,1.14,1.12,1.12,0,0,1-1.13-1.14,1.14,1.14,0,0,1,1.14-1.14A1.12,1.12,0,0,1,368.06,63.36Z" style="fill:#fff"></path><path d="M375.31,63.37a1.14,1.14,0,1,1-1.14-1.14A1.15,1.15,0,0,1,375.31,63.37Z" style="fill:#fff"></path><path d="M382.55,63.37a1.14,1.14,0,1,1-1.14-1.14A1.14,1.14,0,0,1,382.55,63.37Z" style="fill:#fff"></path><path d="M353.54,173.08a1.15,1.15,0,0,1-1.15,1.14,1.14,1.14,0,1,1,1.15-1.14Z" style="fill:#c7c7c7"></path><path d="M360.78,173.08a1.14,1.14,0,1,1-1.14-1.14A1.14,1.14,0,0,1,360.78,173.08Z" style="fill:#c7c7c7"></path><path d="M368,173.09a1.14,1.14,0,1,1-1.14-1.14A1.14,1.14,0,0,1,368,173.09Z" style="fill:#c7c7c7"></path><path d="M375.26,173.09a1.14,1.14,0,1,1-1.14-1.14A1.14,1.14,0,0,1,375.26,173.09Z" style="fill:#c7c7c7"></path><path d="M382.5,173.1a1.14,1.14,0,1,1-1.14-1.14A1.14,1.14,0,0,1,382.5,173.1Z" style="fill:#c7c7c7"></path><polygon points="380.64 188.49 353.11 188.47 351.82 178.29 381.94 178.31 380.64 188.49" style="fill:#ebebeb"></polygon><polygon points="381.94 178.31 381.3 183.27 352.31 182.18 351.82 178.29 381.94 178.31" style="opacity:0.1"></polygon><polygon points="412.28 450.96 408.66 451.63 407.85 455.44 407.04 451.63 403.42 450.96 407.02 450.08 407.85 446.47 408.67 450.08 412.28 450.96" style="fill:#fcfcfc"></polygon><polygon points="377.08 420.37 373.46 421.04 372.65 424.85 371.84 421.04 368.22 420.37 371.83 419.48 372.65 415.88 373.48 419.48 377.08 420.37" style="fill:#fcfcfc"></polygon><polygon points="324.49 458.22 322.46 458.6 322.01 460.73 321.56 458.6 319.54 458.22 321.55 457.73 322.01 455.72 322.47 457.73 324.49 458.22" style="fill:#fcfcfc"></polygon><polygon points="433.32 464.58 431.3 464.96 430.84 467.09 430.39 464.96 428.37 464.58 430.38 464.09 430.84 462.08 431.3 464.09 433.32 464.58" style="fill:#fcfcfc"></polygon><polygon points="296.65 472.06 294.63 472.43 294.18 474.56 293.73 472.43 291.7 472.06 293.72 471.56 294.18 469.55 294.64 471.56 296.65 472.06" style="fill:#fcfcfc"></polygon><polygon points="384.63 470.28 382.61 470.66 382.16 472.79 381.71 470.66 379.69 470.28 381.7 469.79 382.16 467.77 382.62 469.79 384.63 470.28" style="fill:#fcfcfc"></polygon><polygon points="369.83 414.57 367.8 414.94 367.35 417.07 366.9 414.94 364.88 414.57 366.89 414.07 367.35 412.06 367.81 414.07 369.83 414.57" style="fill:#fcfcfc"></polygon><path d="M438.1,469.19a.59.59,0,0,0,0,1.18A.59.59,0,0,0,438.1,469.19Z" style="fill:#fcfcfc"></path><path d="M362,407.17a.59.59,0,0,0,0,1.17A.59.59,0,0,0,362,407.17Z" style="fill:#fcfcfc"></path><path d="M312,472.06a.59.59,0,0,0,0,1.17A.59.59,0,0,0,312,472.06Z" style="fill:#fcfcfc"></path><path d="M349.14,464a.59.59,0,0,0,0,1.17A.59.59,0,0,0,349.14,464Z" style="fill:#fcfcfc"></path><path d="M423.42,458.65a.42.42,0,0,0,0,.83A.42.42,0,0,0,423.42,458.65Z" style="fill:#fcfcfc"></path><path d="M372.16,452.43a.42.42,0,0,0,0,.83A.42.42,0,0,0,372.16,452.43Z" style="fill:#fcfcfc"></path><path d="M334.65,444.33a.42.42,0,0,0,0,.83A.42.42,0,0,0,334.65,444.33Z" style="fill:#fcfcfc"></path><path d="M398.83,446a1.13,1.13,0,0,0,0,2.25A1.13,1.13,0,0,0,398.83,446Z" style="fill:#fcfcfc"></path><path d="M340,440.51a1.13,1.13,0,0,0,0,2.25A1.13,1.13,0,0,0,340,440.51Z" style="fill:#fcfcfc"></path><ellipse cx="167.54" cy="169.39" rx="53.48" ry="52.66" transform="translate(-47.5 271.97) rotate(-70.82)" style="fill:#ebebeb"></ellipse><ellipse cx="167.54" cy="169.39" rx="41.72" ry="41.08" transform="translate(-47.5 271.95) rotate(-70.81)" style="fill:#fff"></ellipse><ellipse cx="167.54" cy="169.39" rx="30.08" ry="29.62" transform="translate(-47.49 271.98) rotate(-70.82)" style="fill:#ebebeb"></ellipse><path d="M185.6,169.09a18.4,18.4,0,0,1-17.95,18.58,18,18,0,0,1-18.18-18,18.4,18.4,0,0,1,17.95-18.58A18,18,0,0,1,185.6,169.09Z" style="fill:#fff"></path><path d="M175.58,169.26a8.2,8.2,0,0,1-8,8.27,8,8,0,0,1-8.09-8,8.19,8.19,0,0,1,8-8.27A8,8,0,0,1,175.58,169.26Z" style="fill:#ebebeb"></path><rect x="128.2" y="105.32" width="0.91" height="87.27" transform="translate(-62.95 193.96) rotate(-62.4)" style="fill:#c7c7c7"></rect><polygon points="86.52 130.55 86.72 130.47 90.26 129.38 83.28 125.73 79.5 126.88 86.52 130.55" style="fill:#c7c7c7"></polygon><path d="M82.44,121.25l1.25,3.68,7,3.65a16.85,16.85,0,0,1-1.23-3.67Z" style="fill:#c7c7c7"></path><polygon points="169.22 168.49 167.77 171.11 163.89 170.78 166.44 168.69 166.69 165.42 169.22 168.49" style="fill:#c7c7c7"></polygon><path d="M402,402.44c-1.86-1.16-3.47-2.86-6-2.62-1,.09-.75-.69-.75-1.21q0-14,0-28.05c0-.68,0-1.24.78-1.62,7.14-3.6,10.24-10.68,14.62-16.74A28,28,0,0,0,415.85,331c-.3-2.1.68-3,2.58-3.47,2.28-.52,4.55.11,5.33,1.68a37.43,37.43,0,0,1,4.08,12.25c.41,3.55-.86,7-1.3,10.51-.33,2.57-.93,5.1-1.41,7.7.62.46,1.35.22,2,.23h23.7c3.33,0,5,1,5.42,3.17a6.31,6.31,0,0,1-3.44,6.84c-.59.3-1.65,0-1.73,1s1,.84,1.58,1.22c2.86,2,2.33,6-1,8.35-.8.56-2.34.3-2.38,1.47,0,.93,1.43.92,2.08,1.57,2.31,2.28,1.16,6.54-2.29,8.26a10.54,10.54,0,0,0-1.39.54c-.39.26-.77.56,0,1.1,3.42,2.44,3.34,5.84-.1,8.32-.34.25-.68.5-1,.74a6.63,6.63,0,0,1-4.16.91q-18.59,0-37.16,0A4.4,4.4,0,0,1,402,402.44Z" style="fill:#ebebeb;fill-rule:evenodd"></path><path d="M366.78,386c0-5.94,0-11.88,0-17.82,0-1.21.11-1.8,1.59-1.78q10.88.12,21.74,0c1.42,0,1.64.48,1.63,1.74q-.06,17.93,0,35.87c0,1.52-.41,2-1.93,1.92-7-.08-14.06-.1-21.09,0-1.74,0-2-.59-2-2.12C366.83,397.84,366.78,391.9,366.78,386Z" style="fill:#ebebeb;fill-rule:evenodd"></path><path d="M78.84,301.05c-1.86-1.16-3.47-2.86-6-2.62-.95.09-.74-.7-.75-1.22q0-14,0-28c0-.68,0-1.23.78-1.61C80,264,83.13,256.86,87.51,250.81a28,28,0,0,0,5.18-21.22c-.3-2.1.68-3,2.58-3.47,2.28-.53,4.55.11,5.33,1.67a37.56,37.56,0,0,1,4.08,12.26c.41,3.55-.86,7-1.3,10.51-.33,2.56-.92,5.1-1.41,7.7.62.46,1.35.22,2,.23h23.69c3.33,0,5,.95,5.42,3.16a6.32,6.32,0,0,1-3.44,6.85c-.59.3-1.65,0-1.73,1s1,.84,1.58,1.22c2.86,2,2.33,6-1,8.35-.8.56-2.34.3-2.38,1.47,0,.93,1.43.92,2.08,1.57,2.31,2.28,1.16,6.54-2.29,8.26a10.54,10.54,0,0,0-1.39.54c-.39.26-.77.56,0,1.09,3.42,2.45,3.35,5.85-.1,8.33l-1,.74a6.63,6.63,0,0,1-4.16.91q-18.58,0-37.16,0A4.41,4.41,0,0,1,78.84,301.05Z" style="fill:#ebebeb;fill-rule:evenodd"></path><path d="M43.62,284.56c0-5.94,0-11.88,0-17.82,0-1.21.11-1.8,1.59-1.79q10.88.14,21.74,0c1.42,0,1.64.47,1.63,1.74q-.06,17.93,0,35.86c0,1.52-.41,1.95-1.93,1.93-7-.08-14.06-.1-21.08,0-1.75,0-2-.58-2-2.11C43.67,296.45,43.62,290.51,43.62,284.56Z" style="fill:#ebebeb;fill-rule:evenodd"></path></g><g id="freepik--Plant--inject-4"><path d="M242.75,396.65a1.07,1.07,0,0,1-.25,0,1,1,0,0,1-.72-1.23c7-26.35,6.68-54.3,6.4-81.33-.08-8.17-.17-16.63-.05-24.91.09-6.48.3-13.07.52-19.44.33-9.95.67-20.25.53-30.36-.56-38.81-9.56-77.74-18.28-115.39l-1.8-7.83a1,1,0,0,1,.75-1.2,1,1,0,0,1,1.2.75l1.8,7.83c8.74,37.75,17.77,76.79,18.33,115.81.14,10.16-.2,20.48-.53,30.46-.22,6.36-.43,12.93-.52,19.4-.12,8.26,0,16.7.05,24.86.28,27.16.57,55.25-6.46,81.86A1,1,0,0,1,242.75,396.65Z" style="fill:#455a64"></path><path d="M249.14,216a1,1,0,0,1-.34-.06,1,1,0,0,1-.6-1.28c3.43-9.52,4.48-20.57,5.49-31.25,1.46-15.4,3-31.32,11.51-43.77a1,1,0,0,1,1.65,1.13c-8.25,12-9.73,27.68-11.17,42.83-1,10.81-2.08,22-5.6,31.74A1,1,0,0,1,249.14,216Z" style="fill:#455a64"></path><path d="M246.5,378.25a1,1,0,0,1-.56-.17,1,1,0,0,1-.26-1.39c3.57-5.22,11.54-14.42,18.14-20.92a1,1,0,0,1,1.4,1.42c-6.52,6.43-14.38,15.49-17.89,20.63A1,1,0,0,1,246.5,378.25Z" style="fill:#455a64"></path><path d="M248.46,357.48a1,1,0,0,1-1-.86,327.35,327.35,0,0,0-28.34-94.17,1,1,0,0,1,.47-1.33,1,1,0,0,1,1.34.46,329.66,329.66,0,0,1,28.51,94.76,1,1,0,0,1-.85,1.13Z" style="fill:#455a64"></path><path d="M263.43,357.3s25.19,17,58.81-12.82c30.35-26.94,34.26-43.87,38.8-68.29,0,0-30.07-2.81-58.91,13.74-25.9,14.86-36.73,29.07-40.64,43.78C257.53,348.63,263.43,357.3,263.43,357.3Z" style="fill:#455a64"></path><g style="opacity:0.1"><path d="M275.74,309.53c-7.8,8-12.07,16-14.24,24.18-4,14.93,1.94,23.59,1.94,23.59s22.87,15.46,54.15-8.94l-43.83-2.07Z"></path><path d="M314.16,284.09a96.75,96.75,0,0,0-12,5.84q-2.31,1.32-4.44,2.64l-5.82,34.76,47.66-.31a91.84,91.84,0,0,0,11.07-16.21l-35.89-2.34Z"></path><path d="M341.21,277l-1.69,13.66,18.44.25c1.18-4.68,2.11-9.53,3.08-14.73A97.39,97.39,0,0,0,341.21,277Z"></path></g><path d="M275.74,309.53a65.18,65.18,0,0,0-6.07,7.17l-1.84,34.05,43.82,1.84c1.94-1.25,3.92-2.65,5.94-4.23l-43.83-2.07Z" style="opacity:0.1"></path><path d="M265.42,358.41S293,319.56,361,276.19c0,0-76.64,45.21-98.8,78.78l1.19,2.33Z" style="fill:#FF8A00"></path><path d="M265.42,358.41S293,319.56,361,276.19c0,0-76.64,45.21-98.8,78.78l1.19,2.33Z" style="opacity:0.4"></path><path d="M223,375s22.8-20.12,2.33-60.14c-18.48-36.13-33.89-44.16-56.4-54.67,0,0-10.25,28.41-1.46,60.48,7.9,28.79,18.95,42.83,32.21,50.3C213.15,378.58,223,375,223,375Z" style="fill:#455a64"></path><g style="opacity:0.1"><path d="M179.86,351.15c5.83,9.56,12.5,15.7,19.85,19.85,13.45,7.58,23.32,4,23.32,4s20.7-18.28,4.91-54.66l-13,41.91Z"></path><path d="M164.85,307.59a97.34,97.34,0,0,0,2.65,13.11c.47,1.71.94,3.36,1.44,5L201.13,340l11.64-46.23A91.49,91.49,0,0,0,199.85,279L188.6,313.16Z"></path><path d="M164.77,279.62l12.81,5.06,4.86-17.79c-4.23-2.31-8.7-4.43-13.49-6.67A98,98,0,0,0,164.77,279.62Z"></path></g><path d="M179.86,351.15a63.7,63.7,0,0,0,5.43,7.68l32.5,10.31,12.76-42c-.73-2.2-1.59-4.47-2.61-6.81l-13,41.91Z" style="opacity:0.1"></path><path d="M224.6,373.38S193.9,337,169,260.22c0,0,24.58,85.52,51.53,115.38L223,375Z" style="fill:#FF8A00"></path><path d="M224.6,373.38S193.9,337,169,260.22c0,0,24.58,85.52,51.53,115.38L223,375Z" style="opacity:0.4"></path><path d="M231.75,384.46s-13.41,18-43.7,6.87S142.48,353,139.31,344.9c0,0,22.73-9.68,48.1-2.55S229.36,360.44,231.75,384.46Z" style="fill:#37474f"></path><g style="opacity:0.1"><path d="M206.29,349.32c1.58.78,3.12,1.62,4.58,2.49,11.9,7.1,19.35,17.15,20.89,32.65,0,0-11.68,15.66-37.85,8.72-1.28-.33-2.58-.71-3.91-1.17l31.2-13.28Z"></path><path d="M165.58,339.77a73.23,73.23,0,0,1,19.78,2.06L201.82,369l-29.91,14.14a87.68,87.68,0,0,1-13.06-10.54l24-11.39Z"></path><path d="M139.31,344.9a68.94,68.94,0,0,1,12.29-3.54c1.17-.23,2.45-.46,3.79-.66l10.85,13.7-16.65,7.76c-.72-.93-1.39-1.85-2-2.77A74.43,74.43,0,0,1,139.31,344.9Z"></path></g><g style="opacity:0.1"><path d="M206.29,349.32c1.58.78,3.12,1.62,4.58,2.49l14.37,28.48-31.33,12.89c-1.28-.33-2.58-.71-3.91-1.17l31.2-13.28Z"></path><path d="M151.6,341.36c1.17-.23,2.45-.46,3.79-.66l10.85,13.7-16.65,7.76c-.72-.93-1.39-1.85-2-2.77l13.74-6.57Z"></path></g><path d="M230.61,385.75s-22.34-15.29-91.3-40.85c0,0,56.74,16.17,92.22,37.72l.22,1.84Z" style="fill:#FF8A00"></path><path d="M230.61,385.75s-22.34-15.29-91.3-40.85c0,0,56.74,16.17,92.22,37.72l.22,1.84Z" style="opacity:0.4"></path><path d="M274.88,141s33.28-7.81,64.85,17c0,0-11.82-37.83-47.45-29.92C282.86,130.15,274.88,141,274.88,141Z" style="fill:#37474f"></path><path d="M274.88,141s25.11-8.09,64.85,17c0,0-12.83-29.15-36.21-30.77C281.85,125.72,274.88,141,274.88,141Z" style="fill:#455a64"></path><g style="opacity:0.1"><path d="M315.89,130.83l-18.84,9.84a94.94,94.94,0,0,1,18.37,5h0l13.34-4.38A46.84,46.84,0,0,0,315.89,130.83Z"></path><path d="M326.93,150.74c4.08,2,8.35,4.43,12.8,7.24a66.54,66.54,0,0,0-5-8.87Z"></path><path d="M274.89,141s4.27-1.39,12.1-1.23l10.77-12.53C280.6,128.46,274.89,141,274.89,141Z"></path></g><g style="opacity:0.1"><path d="M293.52,127.79l-9,12c.78,0,1.6,0,2.48,0h0l10.77-12.53A33.68,33.68,0,0,0,293.52,127.79Z"></path><path d="M312.75,144.7l2.67,1h0l13.34-4.38c-.64-.72-1.31-1.44-2-2.14Z"></path></g><path d="M339.73,158s-33.24-23.67-64.85-17l.46,2.21S302,136,339.73,158Z" style="fill:#FF8A00"></path><path d="M274.89,141l.45,2.2S302,136,339.73,158C339.73,158,306.49,134.32,274.89,141Z" style="opacity:0.4"></path><path d="M265.43,140.74S282.69,151,303.69,130c19-18.93,20.89-30.24,22.94-46.51a72.65,72.65,0,0,0-38.3,11.34c-16.5,10.79-23.09,20.58-25.09,30.43S265.43,140.74,265.43,140.74Z" style="fill:#37474f"></path><g style="opacity:0.1"><path d="M271.69,108.78a35.62,35.62,0,0,0-8.45,16.49c-2,10,2.19,15.47,2.19,15.47s15.68,9.31,35.35-8l-29,.34Z"></path><path d="M296,90.52a64.93,64.93,0,0,0-7.71,4.32c-1,.64-1.92,1.27-2.82,1.91L283,119.88l31.4-2a59.94,59.94,0,0,0,6.67-11.1l-23.74-.16Z"></path><path d="M313.58,84.81,313,93.88l12.16-.55c.6-3.13,1-6.37,1.47-9.83A64.59,64.59,0,0,0,313.58,84.81Z"></path></g><path d="M271.69,108.78a41.62,41.62,0,0,0-3.72,5l.1,22.51,28.95-.48c1.24-.9,2.49-1.9,3.76-3l-29,.34Z" style="opacity:0.1"></path><path d="M266.78,141.39s16.68-26.67,59.85-57.89c0,0-48.77,32.77-62.08,55.75l.88,1.49Z" style="fill:#FF8A00"></path><path d="M266.78,141.39s16.68-26.67,59.85-57.89c0,0-48.77,32.77-62.08,55.75l.88,1.49Z" style="opacity:0.4"></path><path d="M230.45,116.57s-15.63,6.56-31-12.3-14.92-42.41-13.88-48.89c0,0,18.5,2.42,32.26,16.8S238.11,100,230.45,116.57Z" style="fill:#455a64"></path><g style="opacity:0.1"><path d="M227.38,84c.73,1.12,1.41,2.25,2,3.38,5,9.19,6,18.58,1,29.25,0,0-13.6,5.7-27.95-8.85-.71-.71-1.41-1.46-2.09-2.27l25.38,3.34Z"></path><path d="M204.58,62.12a55.37,55.37,0,0,1,12.06,8.94l.27,24L192,92.77a65.3,65.3,0,0,1-4.45-11.87l20,1.82Z"></path><path d="M185.52,55.38a51.68,51.68,0,0,1,9.35,2.42c.85.3,1.77.63,2.72,1l1.8,13.07-13.8-1.34c-.12-.88-.2-1.74-.27-2.59A56.18,56.18,0,0,1,185.52,55.38Z"></path></g><g style="opacity:0.1"><path d="M227.38,84c.73,1.12,1.41,2.25,2,3.38l-1.58,24-25.32-3.63c-.71-.71-1.41-1.46-2.09-2.27l25.38,3.34Z"></path><path d="M194.87,57.8c.85.3,1.77.63,2.72,1l1.8,13.07-13.8-1.34c-.12-.88-.2-1.74-.27-2.59l11.45,1Z"></path></g><path d="M229.21,117s-8.66-18.51-43.69-61.59c0,0,30.69,32.29,45.49,59.91l-.56,1.28Z" style="fill:#FF8A00"></path><path d="M229.21,117s-8.66-18.51-43.69-61.59c0,0,30.69,32.29,45.49,59.91l-.56,1.28Z" style="opacity:0.4"></path><path d="M222.36,262s-21.31-35.21-69.25-41.45c0,0,42.49-21.7,65.7,15.6C225,246,222.36,262,222.36,262Z" style="fill:#37474f"></path><path d="M222.36,262s-14.19-28.41-69.25-41.45c0,0,35.88-13.52,57,5.23C229.61,243.17,222.36,262,222.36,262Z" style="fill:#37474f"></path><g style="opacity:0.1"><path d="M196.54,218.2,204,242.7a115,115,0,0,0-19.77-11.59h0l-7.47-15.16A56.62,56.62,0,0,1,196.54,218.2Z"></path><path d="M170.12,225.48a176.72,176.72,0,0,0-17-4.91A80.06,80.06,0,0,1,165,217.4Z"></path><path d="M222.36,262s-2.42-4.85-9.14-11.44l1.7-19.83C228.3,246.56,222.36,262,222.36,262Z"></path></g><g style="opacity:0.1"><path d="M218,234.88l-2.68,17.83c-.64-.69-1.34-1.39-2.1-2.12h0l1.7-19.83A41.65,41.65,0,0,1,218,234.88Z"></path><path d="M187.26,232.59c-1-.5-2-1-3.08-1.48h0l-7.47-15.16c1.16-.05,2.34-.09,3.54-.08Z"></path></g><path d="M153.11,220.57s48.35,8.65,69.25,41.45l-2.29,1.47S203.83,234.54,153.11,220.57Z" style="fill:#FF8A00"></path><path d="M222.36,262l-2.28,1.47s-16.24-29-67-42.92C153.1,220.57,201.46,229.23,222.36,262Z" style="opacity:0.4"></path><rect x="148.83" y="380.16" width="202.34" height="24.76" style="fill:#FF8A00"></rect><rect x="148.83" y="380.16" width="202.34" height="24.76" style="opacity:0.2"></rect><polygon points="336.16 476.72 163.84 476.72 159.4 404.92 340.6 404.92 336.16 476.72" style="fill:#FF8A00"></polygon><polygon points="336.16 476.72 163.84 476.72 159.4 404.92 340.6 404.92 336.16 476.72" style="opacity:0.2"></polygon><polygon points="339.33 425.49 160.03 415.04 159.4 404.92 340.6 404.92 339.33 425.49" style="opacity:0.1"></polygon><polygon points="338.4 440.51 337.23 459.48 162.77 459.48 161.6 440.51 338.4 440.51" style="fill:#FF8A00"></polygon><polygon points="336.76 466.96 336.49 471.43 163.51 471.43 163.24 466.96 336.76 466.96" style="fill:#FF8A00"></polygon></g><g id="freepik--Character--inject-4"><path d="M201.73,284.21l-21,38.37c-4.05,7.31-7.47,13.8-8.93,17.32a.08.08,0,0,0,0,.05,5.77,5.77,0,0,0-.71,2.56.15.15,0,0,0,0,.07c1.36,2.68,58.86,36.75,61.26,37.26s4.06-6.3,2.88-9.4-17.36-26-17.36-26l20.6-38.53Z" style="fill:#f7a9a0"></path><path d="M182.85,318.72l-2.11,3.86c-4.05,7.31-7.47,13.8-8.93,17.32a.08.08,0,0,0,0,.05,11.46,11.46,0,0,0-.71,2.56.15.15,0,0,0,0,.07c1.36,2.68,58.86,36.75,61.26,37.26s4.06-6.3,2.88-9.4-17.36-26-17.36-26l2.18-4.07Z" style="fill:#ebebeb"></path><path d="M232.18,380.11c-2.41-.51-59.93-34.52-61.3-37.2-.54-1,3.93-9.69,9.63-20l.18-.32,37.53,21.25-.35.61s17.08,23.37,18.27,26.48S234.58,380.63,232.18,380.11Z" style="fill:#FF8A00"></path><path d="M232.18,380.11a18.89,18.89,0,0,1-2.57-1.25l-9.68-31.59c4.57,6.31,15.28,21.21,16.21,23.65C237.32,374,234.58,380.63,232.18,380.11Z" style="opacity:0.1"></path><path d="M232.85,377.5c-9.56-6-48.66-29.16-58.56-34.33-.09,0-.12,0,0,.06,9.34,6.12,48.63,29,58.5,34.43C233,377.77,233.05,377.62,232.85,377.5Z" style="fill:#fff"></path><path d="M220.71,346.68c-3.39-3-8.41-5.14-12.93-4.14-.17,0-.12.28,0,.32a61.85,61.85,0,0,1,12.6,4.3A.29.29,0,0,0,220.71,346.68Z" style="fill:#263238"></path><path d="M222.49,350c-3.4-3-8.41-5.14-12.94-4.14-.17,0-.11.28,0,.32a62.52,62.52,0,0,1,12.61,4.29A.28.28,0,0,0,222.49,350Z" style="fill:#263238"></path><path d="M224.26,353.26c-3.4-3-8.41-5.14-12.93-4.15-.18,0-.12.29,0,.32a62.67,62.67,0,0,1,12.6,4.3A.28.28,0,0,0,224.26,353.26Z" style="fill:#263238"></path><path d="M234.28,378.57c.79,1-1.48,4.33-2.38,4.17s-63.46-37.52-64.39-38.39,1.73-4.46,3.08-3.93S234.28,378.57,234.28,378.57Z" style="fill:#263238"></path><path d="M186.38,334.64c-2.94-4.55-10,0-7.07,4.56S189.32,339.2,186.38,334.64Z" style="fill:#fff"></path><path d="M181.58,315.14l41.88,22.36s52.87-75.34,53.93-95.13c1.46-27.34-21.88-114.13-21.88-114.13L218.27,128s15.14,89.25,13.91,104.48C231.54,240.44,181.58,315.14,181.58,315.14Z" style="fill:#263238"></path><path d="M227.12,328.85c-2.16-1.56-22-13.06-37.13-20.41-.1-.05-.17.1-.07.16,4.58,3,34.21,19.26,37.09,20.41C227.1,329.05,227.22,328.92,227.12,328.85Z" style="fill:#37474f"></path><path d="M237.35,213.4c-1.73-13.06-3.63-26.1-5.8-39.1s-4.48-26.1-7.21-39.05c-.33-1.58-.68-3.16-1-4.73a.19.19,0,0,0-.38.07c2.3,12.85,4.65,25.69,6.77,38.57s4.08,25.78,5.84,38.71c.44,3.2.87,6.41,1.28,9.61a85.73,85.73,0,0,1,1,10,25.44,25.44,0,0,1-1.6,9.34,53.25,53.25,0,0,1-4.29,8.41c-6.73,11.39-36.9,61.19-37.68,62.64,0,.1.08.19.14.1,7.24-11.23,29.7-47.11,36.53-58.69,3.08-5.22,6.61-10.51,7.62-16.61C239.53,226.31,238.18,219.69,237.35,213.4Z" style="fill:#37474f"></path><path d="M226.31,310.83s.87,43.7.87,43.73c.13,8.36.38,15.69.87,19.46a.13.13,0,0,0,0,.06,5.79,5.79,0,0,0,.66,2.58s0,0,0,0c2.52,1.65,69.34,2.61,71.68,1.85s.39-7.48-2.18-9.59-28-13.91-28-13.91L269,311.38Z" style="fill:#f7a9a0"></path><path d="M227.1,350.17s.08,4.36.08,4.39c.13,8.36.38,15.69.87,19.46a.13.13,0,0,0,0,.06,11,11,0,0,0,.66,2.58s0,0,0,0c2.52,1.65,69.34,2.61,71.68,1.85s.39-7.48-2.18-9.59-28-13.91-28-13.91l-.14-4.62Z" style="fill:#ebebeb"></path><path d="M300.42,378.89c-2.34.75-69.16-.14-71.68-1.79-1-.61-1.4-10.36-1.59-22.15v-.37l43.49.1.56.73s25,11.52,27.54,13.62S302.77,378.14,300.42,378.89Z" style="fill:#FF8A00"></path><path d="M299.7,376.28c-11.26-.42-56.71-1.08-67.87-.65-.1,0-.1.07,0,.07,11.16.67,56.61,1,67.88.77C299.94,376.47,299.94,376.29,299.7,376.28Z" style="fill:#fff"></path><path d="M273.85,355.59c-4.42-.89-9.85-.28-13.28,2.83-.13.12,0,.31.19.27a62.31,62.31,0,0,1,13.07-2.54A.28.28,0,0,0,273.85,355.59Z" style="fill:#263238"></path><path d="M277,357.56c-4.42-.89-9.85-.28-13.28,2.83-.13.12.05.31.19.27A62.43,62.43,0,0,1,277,358.12.28.28,0,0,0,277,357.56Z" style="fill:#263238"></path><path d="M280.2,359.53c-4.42-.89-9.85-.28-13.28,2.84-.14.12,0,.3.18.26a62.43,62.43,0,0,1,13.07-2.54A.28.28,0,0,0,280.2,359.53Z" style="fill:#263238"></path><path d="M301.48,376.5c1.19.48.87,4.49,0,4.8s-73.72-1-75-1.27-.71-4.74.73-4.94S301.48,376.5,301.48,376.5Z" style="fill:#263238"></path><path d="M238.08,362.22c-4.82-2.49-8.69,5-3.87,7.47S242.89,364.71,238.08,362.22Z" style="fill:#fff"></path><path d="M255,128.16l0,0c-.24.76-13.63,37.43-14.89,38-1.42.65,29.56,52.7,31.4,76.88,1.17,15.47-1.13,103-1.13,103H225.1s2.18-78.68,3.21-103.61c.4-9.67-31.1-57.8-31.49-87.77-.12-9.45,6.67-26.71,6.67-26.71Z" style="fill:#263238"></path><path d="M228.57,241.8c0-.4-.31-.53-.34-.12-1,13.49-1.27,26.91-1.91,40.42s-.28,16.73-.88,30.2c-.34,7.63,0,15.28-.19,22.91a.09.09,0,1,0,.18,0C226.84,321.77,228.56,249.44,228.57,241.8Z" style="fill:#37474f"></path><path d="M271.53,243.63a66.19,66.19,0,0,0-.92-9.93,49.33,49.33,0,0,0-2.8-9.33c-2.5-6.31-5.46-12.46-8.29-18.63s-5.78-12.48-8.8-18.65q-2.55-5.21-5.13-10.4c-1.74-3.5-3.62-6.94-5.44-10.4a.12.12,0,0,0-.22.1c2.91,6.24,5.77,12.49,8.68,18.72s5.75,12.5,8.6,18.75,5.62,12.32,8.26,18.54a62,62,0,0,1,3.24,9.17,53.73,53.73,0,0,1,1.32,9.86c.44,7.74.66,15.5,1.42,23.22,0,.1.16.09.17,0C271.85,257.65,271.74,250.62,271.53,243.63Z" style="fill:#37474f"></path><path d="M267.12,337.13c-2.64-.34-22.71-1-39.5-.32a.09.09,0,0,0,0,.17c5.47.49,36.39.7,39.47.35C267.2,337.31,267.24,337.15,267.12,337.13Z" style="fill:#37474f"></path><path d="M246.4,164.18a86.68,86.68,0,0,0-14.17,4.91.15.15,0,0,0,.1.29c4.75-1.49,9.59-2.88,14.26-4.63A.3.3,0,0,0,246.4,164.18Z" style="fill:#37474f"></path><path d="M251,133.13c0-.16-.26-.23-.28-.06-.52,5.41-1.35,10.14-2.32,15.14-.46,2.33-3.67,15.1-7.64,13.74-.67-.23-.95-.94-.95-2a16.6,16.6,0,0,1,.95-3.92c.73-2.66,1.37-5.35,1.88-8.07A74.65,74.65,0,0,0,244,132.63a.13.13,0,0,0-.26,0,141.26,141.26,0,0,1-3.41,21c-.86,3.32-3.07,8.22.4,9.1s6.73-7.36,7.41-9.65A77.9,77.9,0,0,0,251,133.13Z" style="fill:#37474f"></path><path d="M240.79,162.31a20.22,20.22,0,0,0-1.19,2.59,6.18,6.18,0,0,0-.61,2.17c0,.14.19.18.28.09a7.81,7.81,0,0,0,1.16-2c.4-.8.81-1.6,1.18-2.41A.45.45,0,0,0,240.79,162.31Z" style="fill:#37474f"></path><path d="M233.21,255.11c.23-6.44.95-13.19-1.16-19.41a64.37,64.37,0,0,0-4.14-8.82q-2.35-4.53-4.62-9.13c-6-12.22-11.76-24.64-16.85-37.3-2.45-6.09-4.65-12.35-5.52-18.89A58,58,0,0,1,202.18,141c.38-1.68.79-3.35,1.25-5,0-.12-.15-.19-.19-.06a67.43,67.43,0,0,0-3.53,19.65,55.29,55.29,0,0,0,3.41,18.78c2.17,6.32,4.89,12.47,7.57,18.59q4.14,9.47,8.6,18.78c3,6.18,6.13,12.25,9.26,18.35a33.11,33.11,0,0,1,3.47,9.26,47.64,47.64,0,0,1,.38,10.13c-.54,14.25-1.77,61.67-2,75.88l-.06,5.41c0,.16.24.18.25,0C231.54,316.62,232.7,269.31,233.21,255.11Z" style="fill:#37474f"></path><path d="M223.05,137.39c0-.11-.16-.09-.17,0-.54,3.92-.84,8-2.73,11.54-1.74,3.26-4.77,5.37-8.07,6.84A61.84,61.84,0,0,1,206.2,158c-.15.05-.11.27,0,.24,3.75-.78,7.56-1.65,10.81-3.76,3.49-2.25,5.28-5.86,5.86-9.89A34.89,34.89,0,0,0,223.05,137.39Z" style="fill:#37474f"></path><polygon points="305.84 237.28 294.27 237.95 291.22 248.77 305.84 237.28" style="fill:#FF8A00"></polygon><polygon points="280.67 216.46 264.5 213.5 293.36 241.12 296.31 237.87 280.67 216.46" style="fill:#FF8A00"></polygon><polygon points="280.67 216.46 264.5 213.5 293.36 241.12 296.31 237.87 280.67 216.46" style="opacity:0.2"></polygon><path d="M290,190.41s19-11.39,18.68-17.26-36.11-7.55-43.57,5.46c-2.4,4.17.67,10.3.67,10.3Zm-21.64-10.7c5.8-10.13,35.48-9.64,35.72-5.07s-16.35,14.25-16.35,14.25l-18.86-1.16S266.47,183,268.34,179.71Z" style="fill:#FF8A00"></path><path d="M290,190.41s19-11.39,18.68-17.26-36.11-7.55-43.57,5.46c-2.4,4.17.67,10.3.67,10.3Zm-21.64-10.7c5.8-10.13,35.48-9.64,35.72-5.07s-16.35,14.25-16.35,14.25l-18.86-1.16S266.47,183,268.34,179.71Z" style="opacity:0.2"></path><polygon points="257.51 224.44 254.22 186.03 311.63 187.42 313.52 212.09 257.51 224.44" style="fill:#FF8A00"></polygon><polygon points="311.63 187.42 315.44 183.13 318.47 214.61 313.52 212.09 311.63 187.42" style="fill:#FF8A00"></polygon><polygon points="311.63 187.42 315.44 183.13 318.47 214.61 313.52 212.09 311.63 187.42" style="opacity:0.2"></polygon><path d="M305.09,242.33s5.14,2,3.62,3.56S305.09,242.33,305.09,242.33Z" style="fill:#455a64"></path><path d="M298.58,245.28s4.73,2.84,3,4.11S298.58,245.28,298.58,245.28Z" style="fill:#455a64"></path><path d="M304.91,250.29s3.57,4.21,1.49,4.85S304.91,250.29,304.91,250.29Z" style="fill:#455a64"></path><path d="M300.4,254.45s3.19,4.5,1.07,5S300.4,254.45,300.4,254.45Z" style="fill:#455a64"></path><path d="M310.12,251.61s4.27,3.5,2.34,4.5S310.12,251.61,310.12,251.61Z" style="fill:#455a64"></path><path d="M307.5,258.79s3,4.64.84,5S307.5,258.79,307.5,258.79Z" style="fill:#455a64"></path><path d="M292,249.74s.67,5.47-1.41,4.87S292,249.74,292,249.74Z" style="fill:#455a64"></path><path d="M286.31,263.38s-2.38,5-3.82,3.35S286.31,263.38,286.31,263.38Z" style="fill:#455a64"></path><path d="M288,256.46s-1.38,5.34-3.1,4S288,256.46,288,256.46Z" style="fill:#455a64"></path><path d="M295.51,250.81s2.32,5,.15,5.07S295.51,250.81,295.51,250.81Z" style="fill:#455a64"></path><path d="M293.14,258.73s-.54,5.49-2.44,4.44S293.14,258.73,293.14,258.73Z" style="fill:#455a64"></path><path d="M200.12,126.73,260.65,151c-.48,1.19,11.06-42.87,12.43-74.71.41-9.42-9-15.73-20.2-9.49C229.37,80,199.81,127.5,200.12,126.73Z" style="fill:#FF8A00"></path><path d="M218.68,100.56l-.41.54.22-.17c.22-.21.47-.4.68-.61Zm43.74,38.08a1.78,1.78,0,0,0-1.83-.72,1.84,1.84,0,0,0-.87.47c-.23.2-.47.39-.69.61.28-.13.55-.28.82-.42a2,2,0,0,1,.8-.28,1.49,1.49,0,0,1,1.37.63,1.91,1.91,0,0,0,1.23.79c0-.15.07-.3.1-.44A1.53,1.53,0,0,1,262.42,138.64Zm-37.52-3.77a1.73,1.73,0,0,1-.8.27,1.52,1.52,0,0,1-1.35-.68,1.8,1.8,0,0,0-1.84-.72,1.86,1.86,0,0,0-.86.47l-.41.36.12,0h0l.42-.2a1.78,1.78,0,0,1,.78-.29,1.5,1.5,0,0,1,1.38.63,1.82,1.82,0,0,0,1.81.77,1.77,1.77,0,0,0,.88-.45c.23-.2.46-.39.69-.61Zm22.74-29.29a1.61,1.61,0,0,1-.78.26,1.5,1.5,0,0,1-1.37-.67,1.76,1.76,0,0,0-1.83-.72,1.92,1.92,0,0,0-.87.46c-.23.21-.47.4-.69.62.28-.13.55-.28.83-.42a1.77,1.77,0,0,1,.79-.29,1.5,1.5,0,0,1,1.37.62,1.77,1.77,0,0,0,2.69.34c.23-.21.47-.4.69-.61C248.19,105.29,247.92,105.44,247.64,105.58Zm24.61-18a1.47,1.47,0,0,1-.93-.63,1.8,1.8,0,0,0-1.83-.73,1.91,1.91,0,0,0-.86.48c-.24.2-.47.39-.7.61.29-.13.55-.27.83-.41a1.79,1.79,0,0,1,.79-.3,1.53,1.53,0,0,1,1.38.63,1.79,1.79,0,0,0,1.27.79A3.29,3.29,0,0,0,272.25,87.54Zm-2.31,17.7a1.76,1.76,0,0,0-1.85,1.7c0,.31,0,.62-.06.92.12-.28.19-.58.29-.87a1.78,1.78,0,0,1,.38-.75,1.49,1.49,0,0,1,1.16-.51A4.53,4.53,0,0,1,269.94,105.24ZM234.38,91.16c0-.31.05-.62.05-.92-.11.28-.19.58-.29.88a1.8,1.8,0,0,1-.35.75,1.51,1.51,0,0,1-1.41.54,1.81,1.81,0,0,0-1.84.72,2,2,0,0,0-.3.94c0,.31-.05.61-.06.93.12-.3.19-.59.3-.88a1.71,1.71,0,0,1,.37-.75,1.54,1.54,0,0,1,1.44-.48,1.78,1.78,0,0,0,1.81-.79A1.93,1.93,0,0,0,234.38,91.16ZM214.21,119c0-.3,0-.61.06-.93-.12.3-.19.6-.29.89a1.79,1.79,0,0,1-.36.76,1.48,1.48,0,0,1-1.41.53,1.77,1.77,0,0,0-1.82.73,1.74,1.74,0,0,0-.32.94c0,.3,0,.61,0,.92.11-.29.19-.59.29-.88a1.72,1.72,0,0,1,.38-.75,1.5,1.5,0,0,1,1.44-.48,1.8,1.8,0,0,0,1.81-.79A2.06,2.06,0,0,0,214.21,119Zm29.52,3.73c0-.31.05-.62.05-.92-.11.28-.19.58-.29.87a2,2,0,0,1-.35.77,1.53,1.53,0,0,1-1.42.53,1.82,1.82,0,0,0-1.83.72,1.91,1.91,0,0,0-.31.94c0,.3-.05.61-.05.92.11-.28.19-.59.29-.87a1.67,1.67,0,0,1,.38-.75,1.51,1.51,0,0,1,1.44-.48,1.81,1.81,0,0,0,1.81-.79A2,2,0,0,0,243.73,122.74Zm17.34-51.49c0-.31.06-.62.06-.93-.12.29-.19.59-.29.88a2,2,0,0,1-.35.77,1.5,1.5,0,0,1-1.42.52,1.77,1.77,0,0,0-2.14,1.66c0,.32-.05.62-.05.93.11-.29.19-.58.29-.88a1.63,1.63,0,0,1,.38-.74A1.48,1.48,0,0,1,259,73a1.83,1.83,0,0,0,1.81-.79A1.85,1.85,0,0,0,261.07,71.25Zm-20,7.44a1.66,1.66,0,0,1-.78.29,1.48,1.48,0,0,1-1.38-.62,1.19,1.19,0,0,0-.34-.37,3.75,3.75,0,0,1-.35.33,1.78,1.78,0,0,1,.29.32,1.8,1.8,0,0,0,1.84.72,2,2,0,0,0,.86-.47c.23-.21.47-.4.69-.61C241.58,78.4,241.31,78.55,241,78.69Zm20.44,41.11a1.78,1.78,0,0,1-.75-.38,1.53,1.53,0,0,1-.48-1.44,1.78,1.78,0,0,0-.79-1.81,2,2,0,0,0-.93-.27c-.31,0-.62-.05-.93-.06.29.11.59.19.89.29a1.81,1.81,0,0,1,.75.36,1.48,1.48,0,0,1,.53,1.41,1.81,1.81,0,0,0,.73,1.83,1.87,1.87,0,0,0,.94.31c.31,0,.61,0,.93,0C262.06,120,261.77,119.89,261.47,119.8Zm-21.32,22.28a1.77,1.77,0,0,0-.79-1.81,1.81,1.81,0,0,0-.93-.27c-.31,0-.62-.06-.93-.07.29.12.59.2.88.3a1.79,1.79,0,0,1,.76.36,1.48,1.48,0,0,1,.53,1.41,1.51,1.51,0,0,0,0,.6l.53.22A1.43,1.43,0,0,1,240.15,142.08ZM228.21,115.2a1.76,1.76,0,0,1-.76-.38,1.49,1.49,0,0,1-.47-1.44,1.8,1.8,0,0,0-.79-1.81,2,2,0,0,0-.95-.27c-.3,0-.61,0-.92-.06.29.11.59.19.88.29a1.91,1.91,0,0,1,.76.35,1.5,1.5,0,0,1,.53,1.42,1.79,1.79,0,0,0,1.67,2.14c.3,0,.61,0,.92,0C228.79,115.38,228.49,115.29,228.21,115.2Zm27.28-22.27a1.6,1.6,0,0,1-.74-.39,1.49,1.49,0,0,1-.48-1.43,1.8,1.8,0,0,0-.79-1.81,1.77,1.77,0,0,0-.94-.28c-.31,0-.61-.06-.93-.06.3.12.59.2.88.3a1.76,1.76,0,0,1,.77.35,1.52,1.52,0,0,1,.53,1.42,1.79,1.79,0,0,0,.72,1.82,1.84,1.84,0,0,0,.94.31c.31,0,.62,0,.92,0C256.09,93.11,255.79,93,255.49,92.93Z" style="fill:#fff"></path><path d="M267.47,78.72c-3.1-.76-7.18-7-7.12-11.94,0-.34,1.95-2.86,4.16-6,1.34-1.93,2.78-4.11,3.95-6.19.24-.43,11.28,10.53,11.28,10.53A37.92,37.92,0,0,0,274,72.38a6.39,6.39,0,0,0-.39.91s0,.09-.06.15C272.87,75.21,270.79,79.54,267.47,78.72Z" style="fill:#f7a9a0"></path><path d="M273.59,73.29a.69.69,0,0,0-.07.15,11,11,0,0,1-1.38-.68c-7.59-4.5-4.2-15.27-3.22-17.93,2.14,1.64,10.82,10.27,10.82,10.27A37.78,37.78,0,0,0,274,72.39,4.94,4.94,0,0,0,273.59,73.29Z" style="fill:#263238"></path><path d="M296.18,40.31s3.18,4.13,1.51,8.8-5.18,8.58-5.68,8.59S296.18,40.31,296.18,40.31Z" style="fill:#263238"></path><path d="M275.17,37c-3.9,4-8.52,18.87-6.75,23.66,2.56,6.93,10.3,11.5,17.08,7.62,6.58-3.77,12.26-23.31,9.95-28C292.06,33.3,280.93,31.14,275.17,37Z" style="fill:#f7a9a0"></path><path d="M282.89,48.83a12.89,12.89,0,0,0,1.39,0,2.26,2.26,0,0,0,1.43-.26.73.73,0,0,0,.18-.86,1.78,1.78,0,0,0-1.63-.77,2.61,2.61,0,0,0-1.8.55A.77.77,0,0,0,282.89,48.83Z" style="fill:#263238"></path><path d="M292.93,52.4a12.9,12.9,0,0,1-1.15-.78c-.44-.31-.82-.51-1-1a.71.71,0,0,1,.33-.81,1.8,1.8,0,0,1,1.78.28A2.64,2.64,0,0,1,294,51.54.77.77,0,0,1,292.93,52.4Z" style="fill:#263238"></path><path d="M280,60.93c.15.31.27.72.62.88a2.78,2.78,0,0,0,1.15.13s.06,0,0,.06a1.4,1.4,0,0,1-1.45.09,1.13,1.13,0,0,1-.47-1.15C279.88,60.87,280,60.88,280,60.93Z" style="fill:#263238"></path><path d="M282.09,58.34a3.55,3.55,0,0,0,1.71,2.3,4.46,4.46,0,0,0,1.19.49l.24.06.23,0a.26.26,0,0,0,.28-.15h0l0-.11h0l0-.08c.3-.76.64-1.94.64-1.94.23.24,1.42,1.38,1.54,1a53.6,53.6,0,0,0,2.34-10.67.1.1,0,0,0-.19,0c-1.07,3.2-1.57,6.56-2.6,9.79a6.25,6.25,0,0,0-1.42-1c-.12,0-.62,2.3-.78,2.63,0,0,0,0,0,0a4.93,4.93,0,0,1-3.1-2.33C282.16,58.2,282.06,58.24,282.09,58.34Z" style="fill:#263238"></path><path d="M284.19,52.25s-.09,0-.11,0c-.32,1-.85,2-1.84,2a0,0,0,0,0,0,.06C283.34,54.63,284,53.22,284.19,52.25Z" style="fill:#263238"></path><path d="M283.83,53.3a1.61,1.61,0,0,1-.58.58,1.13,1.13,0,0,1-.9,0,1,1,0,0,1-.61-.68,1.75,1.75,0,0,1,0-.82,2.79,2.79,0,0,1,.14-.47,2.3,2.3,0,0,1,.56-.84,3.58,3.58,0,0,0-.23.7,3.87,3.87,0,0,0-.09.66c0,.46.08.89.41,1a.87.87,0,0,0,1-.4,7.88,7.88,0,0,0,.75-1.2A3.14,3.14,0,0,1,283.83,53.3Z" style="fill:#263238"></path><path d="M289.78,54.36s.05.08,0,.12c-.44.92-.78,2.06-.06,2.73,0,0,0,.07,0,0C288.75,56.67,289.22,55.17,289.78,54.36Z" style="fill:#263238"></path><path d="M289.31,55.37a1.57,1.57,0,0,0,0,.83,1.12,1.12,0,0,0,.61.65,1,1,0,0,0,.91-.08,1.75,1.75,0,0,0,.57-.58c.08-.14.15-.29.22-.44a2.16,2.16,0,0,0,.17-1,3.18,3.18,0,0,1-.32.67,5.22,5.22,0,0,1-.38.54c-.3.35-.67.59-1,.43a.87.87,0,0,1-.44-1A7.29,7.29,0,0,1,290,54,3.2,3.2,0,0,0,289.31,55.37Z" style="fill:#263238"></path><path d="M269.75,51.31c1.64,1,5-3.87,6.05-5.79.95-1.68,2.93-7.29,3.11-7.66s6.52,7,11.31,6.74,8.76-3.52,9.28-5.38-3.89-8-8.65-9.38S278.11,33,278.11,33a23.68,23.68,0,0,0,2.83-2.34c0-.24-3.43.25-4.54,2.33,0,0,1.29-2.63,1.06-2.74s-3.21,1.69-3.1,3.62c0,0-3.38,1.75-4.28,4.34S267.82,50.16,269.75,51.31Z" style="fill:#263238"></path><path d="M293.63,44.43a15.18,15.18,0,0,1-4.6.49A10.52,10.52,0,0,1,284.39,43a16,16,0,0,1-3.63-3.53c-.89-1.2-1.62-2.55-2.61-3.66-.25-.28-.7.07-.59.39a16.6,16.6,0,0,0,6.68,8,9.52,9.52,0,0,0,9.4.34S293.66,44.43,293.63,44.43Z" style="fill:#263238"></path><path d="M272.74,50s-.9-6-3.47-5.88-3.43,7.71-1.5,9.77a2.69,2.69,0,0,0,3.87.31Z" style="fill:#f7a9a0"></path><path d="M269.08,46.33s-.07,0-.05.06c1.33,1.5,1.44,3.47,1.26,5.38a1.49,1.49,0,0,0-1.81-1.36c-.06,0-.05.1,0,.11a1.67,1.67,0,0,1,1.37,1.33,7.54,7.54,0,0,1,.13,1.71c0,.19.31.24.34,0v0C271.42,51.46,271.24,47.68,269.08,46.33Z" style="fill:#263238"></path><path d="M247.17,76.94c-5.23,14.81-17,45.23-12.44,55.94,6,14.05,25.06,25.25,31.91,29.18,3,1.71,25.06-13.25,22.86-16.2-4.4-5.93-29.12-23.06-30.73-25.29s.66-27.69.58-41C259.25,62.74,251.6,64.41,247.17,76.94Z" style="fill:#f7a9a0"></path><path d="M260.19,97.91,236.4,101s9.09-24.77,13.82-31.3c5.32-7.35,7.92-3,9.35,5.48S260.19,97.91,260.19,97.91Z" style="fill:#FF8A00"></path><path d="M255.49,92.93a1.6,1.6,0,0,1-.74-.39,1.49,1.49,0,0,1-.48-1.43,1.8,1.8,0,0,0-.79-1.81,1.77,1.77,0,0,0-.94-.28c-.31,0-.61-.06-.93-.06.3.12.59.2.88.3a1.76,1.76,0,0,1,.77.35,1.52,1.52,0,0,1,.53,1.42,1.79,1.79,0,0,0,.72,1.82,1.84,1.84,0,0,0,.94.31c.31,0,.62,0,.92,0C256.09,93.11,255.79,93,255.49,92.93ZM259,72.48a1.84,1.84,0,0,0-1.8.74,1.81,1.81,0,0,0-.31.93c0,.32-.05.62-.05.93.11-.29.19-.58.29-.88a1.63,1.63,0,0,1,.38-.74A1.48,1.48,0,0,1,259,73a.42.42,0,0,0,.16,0C259.11,72.82,259.07,72.65,259,72.48Z" style="fill:#fff"></path><path d="M258.79,93.72c-3.09,0-12.34,1.25-13.87,1.45-.81.1-4,.65-4.82.75-.1,0-.06.17,0,.15,1.54-.18,3.1-.2,4.64-.37s11-1.12,14-1.86C258.86,93.82,258.85,93.72,258.79,93.72Z" style="fill:#263238"></path><path d="M245.34,79.16c0-.11-.11-.15-.16-.06q-1.5,3-2.88,6.08a19.44,19.44,0,0,1,1-3.38s-.05-.07-.07,0a15.53,15.53,0,0,0-1.13,3.91q-1,2.14-1.88,4.3c-1.55,3.66-3.15,7.32-4.49,11.06a.28.28,0,0,0,.31.36c.82-.13,1.64-.29,2.45-.48.08,0,.09-.16,0-.16-.69,0-1.38,0-2.07.09,1.6-3.5,3-7.08,4.5-10.62S244,82.88,245.34,79.16Z" style="fill:#263238"></path><path d="M260.81,87.63c.15-1.26.3-2.51.42-3.78,0,0,0,0,0,0-.15.92-.28,1.84-.4,2.77-.05-1.86-.14-3.72-.31-5.56a0,0,0,0,0-.05,0c-.15,2.81-.15,5.63-.24,8.44s-.13,5.52-.17,8.28c-.53.15-1.06.3-1.6.43a.08.08,0,0,0,0,.16c.61-.05,1.21-.1,1.81-.12a.28.28,0,0,0,.29-.25C260.77,94.57,260.87,91.09,260.81,87.63Z" style="fill:#263238"></path><path d="M302,176.11a4.27,4.27,0,0,1-4.79.88,6.27,6.27,0,0,1-2.18,3.69c-2.09,1.56-5.45-1-5.45-1a7.74,7.74,0,0,1-2.93,3.53c-2.14,1.3-5.9-.83-5.9-.83a6.87,6.87,0,0,1-4.53,1.49c-4.38-.36-7.46-6.3-9.46-10.07s-4.15-16.3-4.8-18.65l24-13s13.76,14.31,15.49,19.07C302.92,165.17,304.24,173.66,302,176.11Z" style="fill:#f7a9a0"></path><path d="M297.5,176.61c-.52-4.63-2.38-8.85-4-13.18,0-.09-.19,0-.15.06,1.66,4.28,2.45,8.84,3.93,13.17A.11.11,0,0,0,297.5,176.61Z" style="fill:#263238"></path><path d="M289.85,179.41a12.39,12.39,0,0,0-1.06-3c-.45-1-.91-2.06-1.4-3.08q-1.44-3.06-3-6c-.05-.09-.2,0-.15.06,1,2,1.88,4.08,2.75,6.15.43,1,.86,2.08,1.28,3.12a14.26,14.26,0,0,0,1.32,2.89A.16.16,0,0,0,289.85,179.41Z" style="fill:#263238"></path><path d="M280.7,182.27a8.23,8.23,0,0,0-1.1-2.64c-.45-.92-.91-1.84-1.35-2.77-.9-1.85-1.79-3.69-2.62-5.57-.05-.1-.19,0-.15.05.83,1.92,1.64,3.84,2.49,5.75.42.93.84,1.87,1.27,2.8a7.87,7.87,0,0,0,1.37,2.43A.05.05,0,0,0,280.7,182.27Z" style="fill:#263238"></path></g><g id="freepik--Floor--inject-4"><path d="M43.6,476.72c132.23-.61,280.57-.61,412.8,0-132.23.62-280.57.61-412.8,0Z" style="fill:#263238"></path></g></svg>
